<?xml version="1.0" ?><svg id="Layer_1" style="enable-background:new 0 0 512 512;" version="1.1" viewBox="0 0 512 512" xml:space="preserve" xmlns="http://www.w3.org/2000/svg" xmlns:xlink="http://www.w3.org/1999/xlink"><style type="text/css">
	.st0{fill:#2E2E2E;}
	.st1{fill:#5EA4D3;}
</style><g id="XMLID_4727_"><polygon class="st0" id="XMLID_4734_" points="339.7,6 339.7,112.8 448.3,112.8  "/><path class="st0" d="M367.6,338.6L367.6,338.6c0-49.1-39.8-88.9-88.9-88.9h-215v177.8h215   C327.8,427.5,367.6,387.7,367.6,338.6z M112.7,368.2c3.5,4.7,8.3,7.1,14.4,7.1c6,0,10.5-1.6,13.6-4.7c3.1-3.1,4.7-7.6,4.7-13.5   h14.1l0.1,0.4c0.2,8.8-2.7,15.9-8.6,21.4c-5.9,5.4-13.8,8.1-23.9,8.1c-10.2,0-18.4-3.4-24.8-10.3c-6.3-6.9-9.5-15.7-9.5-26.3v-16.6   c0-10.7,3.1-19.4,9.4-26.3c6.2-6.9,14.4-10.4,24.5-10.4c10.3,0,18.4,2.6,24.3,7.9c5.9,5.2,8.8,12.4,8.6,21.6l-0.1,0.4h-14.1   c0-5.8-1.6-10.3-4.7-13.4c-3.2-3.1-7.8-4.7-13.9-4.7c-5.9,0-10.6,2.4-14.1,7.1c-3.5,4.7-5.2,10.6-5.2,17.8v16.8   C107.4,357.5,109.1,363.5,112.7,368.2z M225.7,380.4c-5.7,4.3-13.2,6.5-22.4,6.5c-8.9,0-16.6-2.4-23.3-7.1   c-6.6-4.7-9.8-11.4-9.6-20l0.1-0.4h14.1c0,5.2,1.8,9.2,5.4,11.9c3.6,2.7,8,4,13.2,4c5.2,0,9.2-1.1,12-3.3c2.9-2.2,4.3-5.1,4.3-8.9   c0-3.6-1.3-6.6-3.9-9c-2.6-2.3-7.2-4.4-13.7-6.2c-9.4-2.6-16.7-6-21.8-10.2c-5.1-4.2-7.7-9.7-7.7-16.6c0-7,2.8-12.9,8.4-17.4   c5.6-4.6,12.8-6.8,21.6-6.8c9.5,0,17,2.5,22.7,7.6c5.7,5.1,8.4,11.3,8.2,18.8l-0.1,0.4h-14.1c0-4.6-1.5-8.3-4.6-11   c-3.1-2.7-7.1-4.1-12.2-4.1c-4.9,0-8.7,1.2-11.4,3.5c-2.7,2.3-4,5.3-4,9c0,3.4,1.5,6.1,4.4,8.3c2.9,2.2,7.8,4.3,14.5,6.2   c9.2,2.6,16.2,6.1,21,10.5c4.8,4.4,7.2,10.1,7.2,17C234.3,370.3,231.4,376.1,225.7,380.4z M246.1,359.8l0.1-0.4h14.1   c0,5.2,1.8,9.2,5.4,11.9c3.6,2.7,8,4,13.2,4c5.2,0,9.2-1.1,12-3.3c2.9-2.2,4.3-5.1,4.3-8.9c0-3.6-1.3-6.6-3.9-9   c-2.6-2.3-7.2-4.4-13.7-6.2c-9.4-2.6-16.7-6-21.8-10.2c-5.1-4.2-7.7-9.7-7.7-16.6c0-7,2.8-12.9,8.4-17.4c5.6-4.6,12.8-6.8,21.6-6.8   c9.5,0,17,2.5,22.7,7.6c5.7,5.1,8.4,11.3,8.2,18.8l-0.1,0.4H295c0-4.6-1.5-8.3-4.6-11c-3.1-2.7-7.1-4.1-12.2-4.1   c-4.9,0-8.7,1.2-11.4,3.5c-2.7,2.3-4,5.3-4,9c0,3.4,1.5,6.1,4.4,8.3c2.9,2.2,7.8,4.3,14.5,6.2c9.2,2.6,16.2,6.1,21,10.5   c4.8,4.4,7.2,10.1,7.2,17c0,7.3-2.8,13-8.5,17.4c-5.7,4.3-13.2,6.5-22.4,6.5c-8.9,0-16.6-2.4-23.3-7.1   C249.1,375.1,245.9,368.4,246.1,359.8z" id="XMLID_4729_"/><path class="st1" d="M327.7,6.3H81v231.3h197.7c55.6,0,100.9,45.3,100.9,100.9s-45.3,100.9-100.9,100.9H81V506   h366.7l0.6-381.2H327.7V6.3z" id="XMLID_4728_"/></g></svg>