<?xml version="1.0" ?><svg id="Layer_1" style="enable-background:new 0 0 512 512;" version="1.1" viewBox="0 0 512 512" xml:space="preserve" xmlns="http://www.w3.org/2000/svg" xmlns:xlink="http://www.w3.org/1999/xlink"><style type="text/css">
	.st0{fill:#2E2E2E;}
	.st1{fill:#5EA4D3;}
</style><g id="XMLID_4429_"><polygon class="st0" id="XMLID_4439_" points="339.7,6 339.7,112.8 448.3,112.8  "/><path class="st0" d="M367.6,338.6L367.6,338.6c0-49.1-39.8-88.9-88.9-88.9h-215v177.8h215   C327.8,427.5,367.6,387.7,367.6,338.6z M286.5,308.3h10.8v56.3h30.4v8.7h-41.3V308.3z M141,373.3h-10.8v-27.7h-29.1v27.7H90.2v-65   h10.8v28.6h29.1v-28.6H141V373.3z M198.7,317h-20.1v56.3h-10.8V317H148v-8.7h50.7V317z M272.8,373.3h-10.8v-46.7l-0.3,0l-17.9,46.7   h-7.5l-18.2-47.6l-0.3,0.1v47.5H207v-65h14.2l18.7,50h0.3l18.8-50h13.8V373.3z" id="XMLID_4431_"/><path class="st1" d="M327.7,6.3H81v231.3h197.7c55.6,0,100.9,45.3,100.9,100.9s-45.3,100.9-100.9,100.9H81V506   h366.6l0.6-381.2H327.7V6.3z" id="XMLID_4430_"/></g></svg>