<svg version="1.1" viewBox="0.0 0.0 96.0 96.0" fill="none" stroke="none" stroke-linecap="square" stroke-miterlimit="10" xmlns:xlink="http://www.w3.org/1999/xlink" xmlns="http://www.w3.org/2000/svg"><clipPath id="p.0"><path d="m0 0l96.0 0l0 96.0l-96.0 0l0 -96.0z" clip-rule="nonzero"/></clipPath><g clip-path="url(#p.0)"><path fill="#000000" fill-opacity="0.0" d="m0 0l96.0 0l0 96.0l-96.0 0z" fill-rule="evenodd"/><path fill="#000000" fill-opacity="0.0" d="m2.0787401 2.9133859l91.842514 0l0 90.17323l-91.842514 0z" fill-rule="evenodd"/><path fill="#000000" d="m46.084633 74.01937q11.515625 0 11.515625 -9.21875q0 -4.796871 -5.09375 -7.093746q-2.6875 -1.34375 -6.953125 -2.5q-4.265625 -1.15625 -7.109375 -2.359375q-2.828125 -1.203125 -5.703125 -3.3125q-5.671873 -4.21875 -5.671873 -13.0q0 -8.781252 6.093748 -13.812502q6.09375 -5.046875 15.9375 -5.046875q9.84375 0 18.296875 3.921875l0 14.406252l-9.796875 0.671875l0 -5.562502q0 -1.4375 -0.390625 -2.109375q-1.046875 -1.828125 -6.765625 -1.828125q-5.703125 0 -8.453125 2.015625q-2.734375 2.015625 -2.734375 6.234377q0 3.078125 2.3125 5.375q1.53125 1.546875 4.546875 2.5625q3.03125 1.0 6.4375 2.0625q3.421875 1.046875 6.046875 2.296875q2.640625 1.234375 5.53125 3.453125q5.859375 4.3125 5.859375 13.343746q0 9.015625 -6.484375 14.203125q-6.484375 5.1875 -17.09375 5.1875q-10.609375 0 -19.046873 -3.9375l0 -15.171875l9.781248 -0.671875l0 5.859375q0 1.4375 0.375 2.109375q0.390625 0.671875 2.359375 1.296875q1.96875 0.625 6.203125 0.625z" fill-rule="nonzero"/></g></svg>